<svg width="33" height="25" viewBox="0 0 33 25" fill="none" xmlns="http://www.w3.org/2000/svg">
<path d="M13.8328 17.5826C13.4293 17.8496 13.0649 18.0835 12.7082 18.3291C11.9734 18.8358 11.2386 19.3426 10.5155 19.8649C10.2271 20.0735 9.96979 20.0696 9.65989 19.9137C7.8044 18.9781 5.94697 18.0504 4.08368 17.1324C3.72506 16.957 3.49702 16.7192 3.37423 16.3294C2.28277 12.864 1.17571 9.40248 0.0745006 5.94098C-0.08727 5.43228 -0.00151205 5.25882 0.489647 5.02103C3.85175 3.39943 7.21384 1.77978 10.5701 0.148428C10.9151 -0.0191901 11.2113 -0.065967 11.5758 0.119192C13.2676 0.982618 14.9769 1.80901 16.6648 2.67828C16.8986 2.79913 17.1052 3.05055 17.2261 3.29223C17.4931 3.82822 17.6744 4.40709 17.9414 4.94307C18.033 5.12433 18.2591 5.32314 18.452 5.35627C21.9837 5.97996 25.5193 6.57247 29.049 7.19811C29.2945 7.24099 29.5967 7.44954 29.7097 7.66783C30.6706 9.49019 31.5866 11.3359 32.5319 13.1661C32.7151 13.5208 32.7736 13.8385 32.6372 14.2283C31.4638 17.5826 30.3061 20.9408 29.1464 24.299C28.8872 25.0513 28.8151 25.0825 28.016 24.9208C24.344 24.1743 20.672 23.4297 16.9941 22.7047C16.5809 22.6228 16.3412 22.4357 16.158 22.0674C15.47 20.6894 14.7566 19.3212 14.053 17.951C14.0024 17.8516 13.94 17.758 13.8347 17.5807L13.8328 17.5826ZM14.8132 16.2846C14.8911 16.3333 14.9165 16.3606 14.9457 16.3664C18.0934 16.9862 21.245 17.5982 24.3908 18.2316C24.7455 18.3038 24.8371 18.1576 24.9384 17.8769C26.0377 14.7916 27.1409 11.7082 28.2616 8.63066C28.4038 8.24085 28.2752 8.15509 27.9283 8.09662C24.7962 7.56843 21.664 7.03634 18.5358 6.48476C18.1694 6.42045 18.0271 6.49256 17.9102 6.84924C16.9357 9.82153 15.9397 12.788 14.9515 15.7583C14.8931 15.9357 14.856 16.1228 14.8132 16.2865V16.2846ZM10.3635 18.5883C10.5526 18.485 10.6695 18.4324 10.7728 18.3622C11.5758 17.8107 12.3925 17.2786 13.1701 16.6919C13.4215 16.5028 13.6496 16.2027 13.7509 15.9064C14.7333 13.0024 15.6474 10.0749 16.6687 7.18447C17.0058 6.23139 17.0741 5.42254 16.5673 4.51428C16.3081 4.04651 16.1463 4.05236 15.737 4.25116C13.0922 5.52973 10.4376 6.78882 7.78491 8.04985C7.09105 8.37923 7.093 8.37144 7.31714 9.07504C8.10456 11.5484 8.88807 14.0217 9.67743 16.4951C9.89378 17.1714 10.1199 17.8438 10.3654 18.5903L10.3635 18.5883ZM1.51289 6.62315C1.53823 6.81026 1.53823 6.90576 1.56552 6.99152C2.47962 9.90144 3.38982 12.8133 4.32536 15.7154C4.39358 15.9298 4.61187 16.1501 4.81847 16.2573C6.0834 16.918 7.36587 17.5495 8.64444 18.1868C8.76138 18.2453 8.89002 18.2765 9.09467 18.3486C9.04594 18.1244 9.03035 17.9997 8.99137 17.8828C8.03244 14.8676 7.07546 11.8524 6.09704 8.84311C6.03272 8.64625 5.82613 8.4416 5.63317 8.35195C4.82432 7.97578 3.99597 7.64055 3.17348 7.29557C2.64529 7.07532 2.11125 6.86483 1.51289 6.62315ZM29.2536 9.21927C29.1523 9.42002 29.0996 9.49993 29.0685 9.58764C28.0394 12.4391 27.022 15.2944 25.9714 18.14C25.7765 18.6663 25.796 19.0892 26.139 19.5356C26.3846 19.8552 26.5639 20.2255 26.7764 20.5705C27.2812 21.3949 27.7879 22.2155 28.3415 23.114C28.4448 22.9035 28.5208 22.7827 28.5656 22.6521C29.5401 19.8338 30.5185 17.0154 31.4716 14.1893C31.5476 13.9613 31.5106 13.6397 31.4054 13.4175C30.9415 12.4352 30.4347 11.4743 29.9397 10.5056C29.735 10.1061 29.5206 9.71433 29.2556 9.21732L29.2536 9.21927ZM15.2225 3.28639C15.1445 3.17724 15.1328 3.14021 15.1075 3.12656C13.8484 2.49313 12.5913 1.85189 11.3205 1.24184C11.1665 1.16778 10.9053 1.2126 10.7377 1.29252C8.08896 2.5555 5.44801 3.83212 2.80511 5.10679C2.54004 5.23543 2.28082 5.37576 1.95922 5.53948C2.1132 5.64083 2.17362 5.6954 2.24573 5.72659C3.55744 6.28401 4.8672 6.84924 6.1906 7.37743C6.36406 7.44759 6.63693 7.38327 6.82209 7.29557C8.90561 6.31715 10.9813 5.32314 13.059 4.33107C13.7704 3.99194 14.4799 3.64306 15.2225 3.28444V3.28639ZM15.1523 17.5417C15.1854 17.6976 15.1854 17.7814 15.2186 17.8477C15.815 19.0191 16.4055 20.1943 17.0292 21.3521C17.1189 21.5177 17.3645 21.66 17.5594 21.7009C20.1652 22.2389 22.775 22.7593 25.3828 23.2816C25.9929 23.4044 26.6068 23.5116 27.2812 23.6383C27.2286 23.4746 27.2169 23.3927 27.1779 23.3264C26.4295 22.0907 25.683 20.8531 24.9131 19.6311C24.8273 19.4927 24.6129 19.3933 24.4395 19.3601C21.6407 18.7969 18.8379 18.2472 16.0372 17.6957C15.7584 17.6411 15.4778 17.6002 15.1503 17.5436L15.1523 17.5417Z" fill="black"/>
<path d="M14.813 16.2845C14.8559 16.1208 14.8929 15.9337 14.9514 15.7564C15.9376 12.788 16.9355 9.82152 17.91 6.84728C18.027 6.4906 18.1693 6.41849 18.5357 6.48281C21.6639 7.03439 24.796 7.56648 27.9281 8.09467C28.2731 8.15314 28.4037 8.2389 28.2614 8.6287C27.1407 11.7062 26.0376 14.7896 24.9383 17.875C24.8389 18.1556 24.7453 18.3018 24.3906 18.2297C21.2449 17.5962 18.0952 16.9842 14.9456 16.3645C14.9163 16.3586 14.891 16.3313 14.813 16.2826V16.2845ZM23.6422 14.2536C23.1491 14.2614 22.7651 14.6551 22.7632 15.156C22.7632 15.6784 23.1686 16.0799 23.6851 16.0682C24.2133 16.0546 24.5407 15.7076 24.5446 15.1638C24.5465 14.6045 24.1918 14.2478 23.6422 14.2556V14.2536ZM24.8642 11.8056C25.3944 11.8017 25.7433 11.4236 25.7316 10.8682C25.7199 10.34 25.3612 9.96185 24.8642 9.9599C24.3341 9.95795 23.9755 10.3341 23.9755 10.8915C23.9755 11.4587 24.3166 11.8095 24.8642 11.8056ZM19.2296 10.5816C19.7344 10.5953 20.1222 10.2308 20.1456 9.72407C20.1709 9.20952 19.7811 8.79047 19.2646 8.77098C18.7618 8.75344 18.3817 9.11596 18.3603 9.63636C18.3388 10.1782 18.6975 10.57 19.2296 10.5836V10.5816ZM18.9333 13.9457C18.9294 13.3668 18.5942 13.0335 18.0289 13.0452C17.5066 13.0569 17.1792 13.4097 17.185 13.9574C17.1909 14.4992 17.5826 14.8988 18.0933 14.8832C18.5903 14.8676 18.9372 14.4817 18.9352 13.9457H18.9333ZM19.9916 14.6298C19.9819 15.1775 20.3464 15.5712 20.8726 15.5751C21.3677 15.579 21.7321 15.2028 21.7497 14.6727C21.7672 14.1367 21.4281 13.7566 20.9155 13.7391C20.3658 13.7196 20.0033 14.0704 19.9916 14.6318V14.6298ZM21.1747 10.3692C21.1747 10.9325 21.5236 11.2989 22.0576 11.2969C22.5683 11.2969 22.921 10.9286 22.9249 10.3945C22.9288 9.83321 22.58 9.47069 22.0342 9.47459C21.5158 9.47849 21.1747 9.83321 21.1747 10.3692Z" fill="#FEFAEF"/>
<path d="M10.3637 18.5883C10.1181 17.8418 9.89201 17.1694 9.67567 16.4931C8.88826 14.0198 8.10474 11.5464 7.31538 9.0731C7.09124 8.36949 7.08929 8.37729 7.78315 8.0479C10.4358 6.78687 13.0904 5.52779 15.7352 4.24922C16.1445 4.05236 16.3063 4.04651 16.5655 4.51234C17.0703 5.42254 17.0021 6.23139 16.6669 7.18252C15.6456 10.073 14.7315 13.0004 13.7492 15.9045C13.6498 16.2007 13.4198 16.5009 13.1684 16.69C12.3907 17.2747 11.576 17.8087 10.771 18.3603C10.6677 18.4305 10.5508 18.4831 10.3617 18.5864L10.3637 18.5883ZM11.1141 9.92678C11.1043 9.36935 10.7379 9.01462 10.1883 9.03606C9.68542 9.05361 9.32094 9.44341 9.32484 9.95991C9.32874 10.4238 9.77117 10.874 10.2253 10.874C10.7457 10.874 11.1238 10.4725 11.1141 9.92678ZM13.4412 10.416C12.9481 10.416 12.5642 10.8155 12.5642 11.332C12.5642 11.8583 12.9286 12.2461 13.4295 12.252C13.9577 12.2598 14.3319 11.8719 14.33 11.3184C14.33 10.8097 13.9382 10.414 13.4412 10.416Z" fill="#FEFAEF"/>
<path d="M1.51295 6.62313C2.11131 6.86481 2.64534 7.07336 3.17354 7.29555C3.99798 7.64053 4.82437 7.97577 5.63323 8.35193C5.82618 8.44159 6.03278 8.64624 6.0971 8.84309C7.07552 11.8524 8.03055 14.8676 8.99143 17.8827C9.02846 17.9997 9.046 18.1244 9.09473 18.3486C8.89203 18.2765 8.76144 18.2453 8.6445 18.1868C7.36593 17.5495 6.08541 16.9199 4.81853 16.2572C4.61193 16.1501 4.39559 15.9298 4.32542 15.7154C3.38988 12.8133 2.47968 9.90142 1.56558 6.9915C1.53829 6.90574 1.53829 6.81024 1.51295 6.62313ZM5.04072 11.4685C4.95691 11.5328 4.7659 11.6146 4.67235 11.7608C4.40338 12.1837 4.71718 13.053 5.18885 13.2031C5.32723 13.2479 5.53188 13.2421 5.64687 13.168C6.01719 12.9263 6.01914 12.556 5.8983 12.176C5.77941 11.8056 5.5962 11.4918 5.04072 11.4685Z" fill="#FEFAEF"/>
<path d="M29.2538 9.2193C29.5189 9.71631 29.7332 10.1081 29.9379 10.5076C30.433 11.4743 30.9397 12.4372 31.4036 13.4195C31.5088 13.6417 31.5478 13.9652 31.4698 14.1913C30.5187 17.0174 29.5403 19.8357 28.5638 22.6541C28.519 22.7846 28.443 22.9035 28.3397 23.116C27.7862 22.2175 27.2794 21.395 26.7746 20.5725C26.5622 20.2275 26.3848 19.8552 26.1373 19.5375C25.7923 19.0912 25.7747 18.6683 25.9696 18.142C27.0202 15.2984 28.0356 12.4411 29.0667 9.58962C29.0979 9.50191 29.1505 9.42005 29.2518 9.22125L29.2538 9.2193ZM28.632 18.296C28.6457 17.8497 28.4215 17.5437 28.0727 17.532C27.6478 17.5183 27.2697 17.9958 27.256 18.565C27.2463 18.9509 27.5211 19.327 27.831 19.3504C28.213 19.3797 28.6145 18.8534 28.632 18.296ZM28.3221 15.6589C28.3436 15.9532 28.4742 16.2534 28.8971 16.2846C29.3123 16.3158 29.6962 15.7915 29.6884 15.236C29.6826 14.7799 29.4545 14.5012 29.092 14.5051C28.6769 14.509 28.3182 15.0119 28.3221 15.6609V15.6589Z" fill="#FEFAEF"/>
<path d="M15.2227 3.2864C14.4801 3.64697 13.7726 3.9939 13.0592 4.33303C10.9816 5.3251 8.90583 6.31911 6.8223 7.29753C6.6352 7.38523 6.36428 7.44955 6.19081 7.37939C4.86741 6.84925 3.55766 6.28403 2.24595 5.72855C2.17384 5.69736 2.11342 5.64279 1.95944 5.54144C2.27909 5.37577 2.54026 5.23544 2.80533 5.10875C5.44823 3.83408 8.08918 2.55746 10.7379 1.29448C10.9055 1.21457 11.1667 1.16974 11.3207 1.2438C12.5915 1.85385 13.8486 2.49509 15.1077 3.12853C15.133 3.14022 15.1447 3.17725 15.2227 3.28835V3.2864ZM10.43 3.2903C10.7691 3.072 11.1336 2.85566 11.4766 2.60618C11.5507 2.55161 11.5955 2.35281 11.5526 2.2729C11.5098 2.19298 11.3168 2.11112 11.2369 2.14426C10.8451 2.30408 10.4592 2.48729 10.0947 2.70169C10.0168 2.74651 9.98755 2.9687 10.0246 3.08175C10.0499 3.16166 10.2253 3.19089 10.43 3.29225V3.2903ZM10.5781 4.67606C10.9289 4.45972 11.2973 4.24728 11.6442 4.00365C11.7241 3.94712 11.7904 3.72883 11.7495 3.67816C11.6735 3.5846 11.4844 3.48715 11.3928 3.52223C11.0108 3.67036 10.6366 3.84967 10.2838 4.05627C10.1922 4.10889 10.1181 4.32329 10.1532 4.42269C10.1864 4.51819 10.3715 4.56107 10.5781 4.67412V4.67606ZM6.25903 6.6368C6.60986 6.42046 6.97628 6.20996 7.31931 5.96828C7.39337 5.91566 7.43041 5.7149 7.38948 5.6272C7.35244 5.54729 7.15754 5.45958 7.07958 5.49271C6.68977 5.65643 6.30971 5.84354 5.94329 6.05404C5.86337 6.09887 5.79711 6.30936 5.83609 6.38148C5.89066 6.48088 6.05243 6.51986 6.25903 6.63875V6.6368ZM8.94286 3.67621C8.58619 3.8945 8.21197 4.105 7.86309 4.35058C7.78513 4.40515 7.73641 4.60395 7.77539 4.68776C7.81632 4.77352 8.01317 4.87292 8.08723 4.83978C8.49653 4.66437 8.89414 4.46362 9.2781 4.24143C9.34826 4.2005 9.37945 3.9861 9.33657 3.89645C9.29369 3.80874 9.13387 3.77561 8.94091 3.67621H8.94286ZM6.83205 4.0017C6.46563 4.22973 6.09531 4.44413 5.74838 4.68971C5.67432 4.74233 5.62364 4.94308 5.66457 5.0191C5.71135 5.10485 5.90041 5.19646 5.98227 5.16528C6.36818 5.0191 6.75019 4.84758 7.11076 4.64488C7.20042 4.59421 7.26474 4.37591 7.23355 4.26677C7.20627 4.17126 7.025 4.12059 6.83205 4.0017Z" fill="#FEFAEF"/>
<path d="M15.1522 17.5417C15.4815 17.5982 15.7622 17.6391 16.039 17.6937C18.8397 18.2453 21.6425 18.7949 24.4413 19.3582C24.6128 19.3933 24.8272 19.4927 24.9149 19.6291C25.6848 20.8512 26.4293 22.0888 27.1797 23.3245C27.2187 23.3888 27.2304 23.4726 27.283 23.6363C26.6086 23.5096 25.9966 23.4005 25.3846 23.2797C22.7749 22.7593 20.167 22.2389 17.5612 21.699C17.3643 21.6581 17.1207 21.5177 17.031 21.3501C16.4073 20.1924 15.8168 19.0171 15.2204 17.8457C15.1853 17.7795 15.1853 17.6937 15.1541 17.5397L15.1522 17.5417ZM20.8609 20.1398C20.8551 20.1592 20.8492 20.1787 20.8434 20.2002C20.7459 20.2002 20.6348 20.169 20.5549 20.206C20.4068 20.2762 20.2762 20.3853 20.1378 20.4789C20.2333 20.5958 20.3132 20.7927 20.4263 20.818C20.8258 20.8999 21.239 20.9389 21.6483 20.9564C21.7341 20.9603 21.8842 20.8141 21.8978 20.7245C21.9095 20.6329 21.8101 20.4691 21.7204 20.4302C21.4437 20.3093 21.1494 20.2353 20.8609 20.1437V20.1398ZM18.561 21.3462C18.5649 21.3326 18.5669 21.3189 18.5708 21.3033C18.6682 21.3033 18.7774 21.3326 18.8573 21.2975C19.0054 21.2293 19.136 21.1221 19.2744 21.0324C19.1789 20.9174 19.1009 20.7264 18.984 20.6991C18.6156 20.6114 18.2336 20.5569 17.8555 20.5471C17.7444 20.5432 17.5826 20.7089 17.53 20.8317C17.5066 20.8901 17.6664 21.0831 17.7775 21.1279C18.027 21.2293 18.2979 21.276 18.5591 21.3443L18.561 21.3462ZM18.8164 19.9176C19.0152 19.9 19.1243 19.9176 19.2062 19.8786C19.3426 19.8143 19.4634 19.7149 19.5901 19.6291C19.4829 19.5063 19.3952 19.3036 19.2666 19.2744C18.8963 19.1906 18.5104 19.1555 18.1283 19.1457C18.0289 19.1438 17.8516 19.3017 17.8438 19.3972C17.836 19.4985 17.9646 19.6661 18.0738 19.709C18.3408 19.8162 18.6273 19.8688 18.8144 19.9176H18.8164ZM23.1198 19.9585C22.884 19.9975 22.7339 19.9994 22.5995 20.0482C22.2993 20.1534 22.235 20.4243 22.5176 20.5198C22.9542 20.6699 23.4375 20.6874 23.9053 20.7264C23.9794 20.7323 24.11 20.5724 24.1353 20.4711C24.1509 20.4048 24.0398 20.2586 23.954 20.2255C23.6578 20.1105 23.3498 20.0287 23.1198 19.9585ZM23.1062 22.2447C23.1121 22.2272 23.1159 22.2096 23.1218 22.1921C23.2037 22.1921 23.2992 22.2194 23.3615 22.1863C23.5213 22.1044 23.6656 21.9933 23.8157 21.8958C23.6987 21.777 23.5954 21.5781 23.459 21.5528C23.0848 21.4807 22.6969 21.4632 22.3149 21.4632C22.2291 21.4632 22.0985 21.6074 22.0713 21.7087C22.0518 21.7789 22.1551 21.9368 22.2369 21.968C22.5195 22.081 22.8158 22.1551 23.1062 22.2447Z" fill="#FEFAEF"/>
<path d="M23.6424 14.2536C24.192 14.2458 24.5467 14.6025 24.5448 15.1619C24.5428 15.7076 24.2134 16.0545 23.6853 16.0662C23.1668 16.0779 22.7614 15.6764 22.7634 15.1541C22.7634 14.6532 23.1493 14.2595 23.6424 14.2517V14.2536Z" fill="black"/>
<path d="M24.8646 11.8056C24.3169 11.8095 23.9758 11.4606 23.9758 10.8915C23.9758 10.3341 24.3344 9.95598 24.8646 9.95988C25.3596 9.96183 25.7202 10.3399 25.7319 10.8681C25.7436 11.4236 25.3947 11.7998 24.8646 11.8056Z" fill="black"/>
<path d="M19.2295 10.5817C18.6974 10.568 18.3388 10.1763 18.3602 9.63445C18.3817 9.11405 18.7618 8.75153 19.2646 8.76907C19.7811 8.78856 20.169 9.20761 20.1456 9.72216C20.1222 10.2309 19.7343 10.5934 19.2295 10.5797V10.5817Z" fill="black"/>
<path d="M18.9332 13.9457C18.9352 14.4817 18.5902 14.8676 18.0913 14.8832C17.5826 14.8988 17.1889 14.4992 17.183 13.9574C17.1772 13.4097 17.5046 13.055 18.0269 13.0452C18.5922 13.0335 18.9274 13.3668 18.9313 13.9457H18.9332Z" fill="black"/>
<path d="M19.9917 14.6298C20.0034 14.0685 20.3659 13.7177 20.9156 13.7372C21.4282 13.7567 21.7673 14.1367 21.7498 14.6708C21.7322 15.2009 21.3658 15.5771 20.8727 15.5732C20.3464 15.5693 19.982 15.1775 19.9917 14.6279V14.6298Z" fill="black"/>
<path d="M21.1746 10.3692C21.1746 9.83321 21.5138 9.47654 22.0342 9.47459C22.5799 9.47069 22.9288 9.83321 22.9249 10.3945C22.921 10.9286 22.5682 11.295 22.0575 11.2969C21.5235 11.2989 21.1766 10.9325 21.1746 10.3692Z" fill="black"/>
<path d="M11.114 9.92677C11.1237 10.4725 10.7456 10.876 10.2252 10.874C9.77108 10.874 9.32865 10.4218 9.32475 9.9599C9.32086 9.4434 9.68533 9.0536 10.1882 9.03605C10.7378 9.01656 11.1042 9.36934 11.114 9.92677Z" fill="black"/>
<path d="M13.4409 10.416C13.9379 10.416 14.3277 10.8117 14.3297 11.3184C14.3297 11.8719 13.9574 12.2578 13.4292 12.252C12.9264 12.2462 12.5619 11.8583 12.5638 11.332C12.5638 10.8175 12.9478 10.4179 13.4409 10.416Z" fill="black"/>
<path d="M5.04052 11.4685C5.59599 11.4938 5.7792 11.8057 5.8981 12.176C6.01894 12.556 6.01699 12.9264 5.64667 13.168C5.53168 13.2421 5.32703 13.248 5.18864 13.2031C4.71698 13.053 4.40318 12.1838 4.67215 11.7608C4.76375 11.6147 4.95671 11.5328 5.04052 11.4685Z" fill="black"/>
<path d="M28.6318 18.296C28.6142 18.8534 28.2127 19.3796 27.8307 19.3504C27.5189 19.327 27.2441 18.9508 27.2558 18.5649C27.2713 17.9958 27.6495 17.5183 28.0724 17.5319C28.4213 17.5436 28.6454 17.8496 28.6318 18.296Z" fill="black"/>
<path d="M28.3223 15.6589C28.3184 15.0079 28.6789 14.507 29.0921 14.5031C29.4546 14.4992 29.6827 14.7779 29.6885 15.234C29.6963 15.7895 29.3124 16.3138 28.8972 16.2826C28.4743 16.2514 28.3437 15.9513 28.3223 15.657V15.6589Z" fill="black"/>
<path d="M10.4295 3.29029C10.2229 3.19089 10.0495 3.15971 10.0241 3.0798C9.9871 2.9687 10.0163 2.74456 10.0943 2.69973C10.4588 2.48534 10.8447 2.30408 11.2364 2.14231C11.3163 2.10917 11.5113 2.19103 11.5522 2.27094C11.5951 2.35085 11.5502 2.54966 11.4762 2.60423C11.1351 2.85371 10.7687 3.07005 10.4295 3.28834V3.29029Z" fill="black"/>
<path d="M10.5779 4.67603C10.3713 4.56104 10.1881 4.52011 10.153 4.42461C10.118 4.32521 10.192 4.11081 10.2836 4.05819C10.6384 3.85159 11.0106 3.67228 11.3926 3.52415C11.4842 3.48907 11.6733 3.58652 11.7493 3.68007C11.7902 3.73075 11.724 3.94904 11.6441 4.00556C11.2971 4.24919 10.9288 4.46164 10.5779 4.67798V4.67603Z" fill="black"/>
<path d="M6.25891 6.63679C6.05231 6.51985 5.89054 6.47892 5.83596 6.37952C5.79698 6.3074 5.86325 6.09691 5.94316 6.05208C6.30958 5.84158 6.68965 5.65252 7.07945 5.49075C7.15742 5.45762 7.35232 5.54533 7.38935 5.62524C7.43028 5.71294 7.39325 5.9137 7.31919 5.96632C6.97615 6.20995 6.60973 6.4185 6.25891 6.63484V6.63679Z" fill="black"/>
<path d="M8.94273 3.67621C9.13568 3.77756 9.29551 3.80874 9.33838 3.89645C9.38126 3.98611 9.34813 4.2005 9.27991 4.24143C8.89595 4.46557 8.4964 4.66632 8.08905 4.83979C8.01498 4.87097 7.81618 4.77352 7.7772 4.68776C7.73822 4.60395 7.78695 4.4032 7.86491 4.35058C8.21574 4.105 8.588 3.8945 8.94468 3.67621H8.94273Z" fill="black"/>
<path d="M6.83185 4.00168C7.02286 4.12057 7.20412 4.17125 7.23335 4.26675C7.26454 4.37589 7.20217 4.59419 7.11056 4.64486C6.74999 4.84756 6.36993 5.01908 5.98207 5.16526C5.90021 5.19644 5.71115 5.10484 5.66437 5.01908C5.62344 4.94307 5.67217 4.74426 5.74818 4.68969C6.09511 4.44411 6.46543 4.22972 6.83185 4.00168Z" fill="black"/>
<path d="M20.861 20.1397C21.1494 20.2313 21.4437 20.3073 21.7205 20.4262C21.8121 20.4652 21.9115 20.6289 21.8979 20.7205C21.8862 20.8122 21.7341 20.9564 21.6484 20.9525C21.2391 20.9349 20.8278 20.896 20.4263 20.8141C20.3113 20.7907 20.2334 20.5939 20.1379 20.475C20.2763 20.3814 20.4068 20.2723 20.555 20.2021C20.6349 20.1651 20.746 20.1963 20.8434 20.1963C20.8493 20.1768 20.8551 20.1573 20.861 20.1358V20.1397Z" fill="black"/>
<path d="M18.5612 21.3462C18.3001 21.278 18.0292 21.2312 17.7797 21.1299C17.6686 21.085 17.5068 20.8901 17.5321 20.8336C17.5848 20.7089 17.7446 20.5452 17.8576 20.5491C18.2358 20.5588 18.6178 20.6134 18.9861 20.7011C19.1031 20.7284 19.181 20.9194 19.2765 21.0344C19.1382 21.124 19.0076 21.2312 18.8594 21.2994C18.7795 21.3365 18.6684 21.3053 18.5729 21.3053C18.569 21.3189 18.5671 21.3326 18.5632 21.3482L18.5612 21.3462Z" fill="black"/>
<path d="M18.8166 19.9176C18.6295 19.8669 18.341 19.8162 18.0759 19.709C17.9687 19.6661 17.8381 19.4985 17.8459 19.3972C17.8537 19.3017 18.0311 19.1438 18.1305 19.1457C18.5125 19.1535 18.8984 19.1886 19.2687 19.2744C19.3974 19.3036 19.4851 19.5063 19.5923 19.6291C19.4656 19.7149 19.3448 19.8143 19.2083 19.8786C19.1265 19.9176 19.0173 19.9 18.8185 19.9176H18.8166Z" fill="black"/>
<path d="M23.1199 19.9585C23.3479 20.0287 23.6578 20.1105 23.9541 20.2255C24.0398 20.2587 24.1509 20.4048 24.1353 20.4711C24.1119 20.5725 23.9794 20.7323 23.9053 20.7264C23.4376 20.6875 22.9542 20.6699 22.5176 20.5198C22.2369 20.4224 22.3013 20.1534 22.5995 20.0482C22.7339 20.0014 22.8821 19.9975 23.1199 19.9585Z" fill="black"/>
<path d="M23.1064 22.2447C22.816 22.1551 22.5178 22.081 22.2372 21.968C22.1553 21.9348 22.052 21.7769 22.0715 21.7087C22.0988 21.6074 22.2294 21.4632 22.3151 21.4632C22.6971 21.4632 23.085 21.4807 23.4592 21.5528C23.5956 21.5801 23.697 21.7769 23.8159 21.8958C23.6658 21.9952 23.5216 22.1044 23.3618 22.1862C23.2974 22.2194 23.2019 22.1921 23.122 22.1921C23.1162 22.2096 23.1123 22.2272 23.1064 22.2447Z" fill="black"/>
</svg>
